<?xml version="1.0" encoding="UTF-8" standalone="no"?>
<!DOCTYPE svg PUBLIC "-//W3C//DTD SVG 1.1//EN" "http://www.w3.org/Graphics/SVG/1.1/DTD/svg11.dtd">
<!-- Generated by graphviz version 2.40.1 (20161225.0304)
 -->
<!-- Title: G Pages: 1 -->
<svg width="318pt" height="191pt" viewBox="0.00 0.00 317.50 191.00" xmlns="http://www.w3.org/2000/svg" xmlns:xlink="http://www.w3.org/1999/xlink">
<g id="graph0" class="graph" transform="scale(1 1) rotate(0) translate(4 187)">
<title>G</title>
<polygon fill="#ffffff" stroke="transparent" points="-4,4 -4,-187 313.5,-187 313.5,4 -4,4"/>
<!-- 8 -->
<g id="node1" class="node">
<title>8</title>
<polygon fill="none" stroke="#000000" points="122,-146.5 122,-182.5 184,-182.5 184,-146.5 122,-146.5"/>
<text text-anchor="middle" x="131.75" y="-160.3" font-family="Times,serif" font-size="14.00" fill="#000000"> </text>
<polyline fill="none" stroke="#000000" points="141.5,-146.5 141.5,-182.5 "/>
<text text-anchor="middle" x="153" y="-160.3" font-family="Times,serif" font-size="14.00" fill="#000000">8</text>
<polyline fill="none" stroke="#000000" points="164.5,-146.5 164.5,-182.5 "/>
<text text-anchor="middle" x="174.25" y="-160.3" font-family="Times,serif" font-size="14.00" fill="#000000"> </text>
</g>
<!-- 4 -->
<g id="node2" class="node">
<title>4</title>
<polygon fill="none" stroke="#000000" points="59,-73.5 59,-109.5 121,-109.5 121,-73.5 59,-73.5"/>
<text text-anchor="middle" x="68.75" y="-87.3" font-family="Times,serif" font-size="14.00" fill="#000000"> </text>
<polyline fill="none" stroke="#000000" points="78.5,-73.5 78.5,-109.5 "/>
<text text-anchor="middle" x="90" y="-87.3" font-family="Times,serif" font-size="14.00" fill="#000000">4</text>
<polyline fill="none" stroke="#000000" points="101.5,-73.5 101.5,-109.5 "/>
<text text-anchor="middle" x="111.25" y="-87.3" font-family="Times,serif" font-size="14.00" fill="#000000"> </text>
</g>
<!-- 8&#45;&gt;4 -->
<g id="edge1" class="edge">
<title>8:c-&gt;4:data</title>
<path fill="none" stroke="#000000" d="M128.4685,-157.0726C126.698,-153.6014 124.4181,-149.477 122,-146 111.9918,-131.6093 97.1219,-130.7499 91.8976,-119.3618"/>
<ellipse fill="#000000" stroke="#000000" cx="130.2824" cy="-160.8875" rx="4" ry="4"/>
<polygon fill="#000000" stroke="#000000" points="95.3265,-118.6585 90,-109.5 88.4526,-119.9812 95.3265,-118.6585"/>
</g>
<!-- 13 -->
<g id="node3" class="node">
<title>13</title>
<polygon fill="none" stroke="#000000" points="181.5,-73.5 181.5,-109.5 250.5,-109.5 250.5,-73.5 181.5,-73.5"/>
<text text-anchor="middle" x="191.25" y="-87.3" font-family="Times,serif" font-size="14.00" fill="#000000"> </text>
<polyline fill="none" stroke="#000000" points="201,-73.5 201,-109.5 "/>
<text text-anchor="middle" x="216" y="-87.3" font-family="Times,serif" font-size="14.00" fill="#000000">13</text>
<polyline fill="none" stroke="#000000" points="231,-73.5 231,-109.5 "/>
<text text-anchor="middle" x="240.75" y="-87.3" font-family="Times,serif" font-size="14.00" fill="#000000"> </text>
</g>
<!-- 8&#45;&gt;13 -->
<g id="edge2" class="edge">
<title>8:c-&gt;13:data</title>
<path fill="none" stroke="#000000" d="M177.5315,-157.0726C179.302,-153.6014 181.5819,-149.477 184,-146 194.0082,-131.6093 208.8781,-130.7499 214.1024,-119.3618"/>
<ellipse fill="#000000" stroke="#000000" cx="175.7176" cy="-160.8875" rx="4" ry="4"/>
<polygon fill="#000000" stroke="#000000" points="217.5474,-119.9812 216,-109.5 210.6735,-118.6585 217.5474,-119.9812"/>
</g>
<!-- 3 -->
<g id="node4" class="node">
<title>3</title>
<polygon fill="none" stroke="#000000" points="0,-.5 0,-36.5 62,-36.5 62,-.5 0,-.5"/>
<text text-anchor="middle" x="9.75" y="-14.3" font-family="Times,serif" font-size="14.00" fill="#000000"> </text>
<polyline fill="none" stroke="#000000" points="19.5,-.5 19.5,-36.5 "/>
<text text-anchor="middle" x="31" y="-14.3" font-family="Times,serif" font-size="14.00" fill="#000000">3</text>
<polyline fill="none" stroke="#000000" points="42.5,-.5 42.5,-36.5 "/>
<text text-anchor="middle" x="52.25" y="-14.3" font-family="Times,serif" font-size="14.00" fill="#000000"> </text>
</g>
<!-- 4&#45;&gt;3 -->
<g id="edge3" class="edge">
<title>4:c-&gt;3:data</title>
<path fill="none" stroke="#000000" d="M65.3653,-84.1419C63.5722,-80.6859 61.3031,-76.5542 59,-73 50.14,-59.327 37.6204,-57.2507 32.8998,-46.6253"/>
<ellipse fill="#000000" stroke="#000000" cx="67.2284" cy="-87.9137" rx="4" ry="4"/>
<polygon fill="#000000" stroke="#000000" points="36.2842,-45.683 31,-36.5 29.4042,-46.974 36.2842,-45.683"/>
</g>
<!-- 5 -->
<g id="node5" class="node">
<title>5</title>
<polygon fill="none" stroke="#000000" points="80,-.5 80,-36.5 142,-36.5 142,-.5 80,-.5"/>
<text text-anchor="middle" x="89.75" y="-14.3" font-family="Times,serif" font-size="14.00" fill="#000000"> </text>
<polyline fill="none" stroke="#000000" points="99.5,-.5 99.5,-36.5 "/>
<text text-anchor="middle" x="111" y="-14.3" font-family="Times,serif" font-size="14.00" fill="#000000">5</text>
<polyline fill="none" stroke="#000000" points="122.5,-.5 122.5,-36.5 "/>
<text text-anchor="middle" x="132.25" y="-14.3" font-family="Times,serif" font-size="14.00" fill="#000000"> </text>
</g>
<!-- 4&#45;&gt;5 -->
<g id="edge4" class="edge">
<title>4:c-&gt;5:data</title>
<path fill="none" stroke="#000000" d="M111,-83.3C111,-74.7355 111,-60.6526 111,-46.8775"/>
<ellipse fill="#000000" stroke="#000000" cx="111" cy="-87.5" rx="4" ry="4"/>
<polygon fill="#000000" stroke="#000000" points="114.5001,-46.5 111,-36.5 107.5001,-46.5 114.5001,-46.5"/>
</g>
<!-- 9 -->
<g id="node6" class="node">
<title>9</title>
<polygon fill="none" stroke="#000000" points="160,-.5 160,-36.5 222,-36.5 222,-.5 160,-.5"/>
<text text-anchor="middle" x="169.75" y="-14.3" font-family="Times,serif" font-size="14.00" fill="#000000"> </text>
<polyline fill="none" stroke="#000000" points="179.5,-.5 179.5,-36.5 "/>
<text text-anchor="middle" x="191" y="-14.3" font-family="Times,serif" font-size="14.00" fill="#000000">9</text>
<polyline fill="none" stroke="#000000" points="202.5,-.5 202.5,-36.5 "/>
<text text-anchor="middle" x="212.25" y="-14.3" font-family="Times,serif" font-size="14.00" fill="#000000"> </text>
</g>
<!-- 13&#45;&gt;9 -->
<g id="edge5" class="edge">
<title>13:c-&gt;9:data</title>
<path fill="none" stroke="#000000" d="M191,-83.3C191,-74.7355 191,-60.6526 191,-46.8775"/>
<ellipse fill="#000000" stroke="#000000" cx="191" cy="-87.5" rx="4" ry="4"/>
<polygon fill="#000000" stroke="#000000" points="194.5001,-46.5 191,-36.5 187.5001,-46.5 194.5001,-46.5"/>
</g>
<!-- 15 -->
<g id="node7" class="node">
<title>15</title>
<polygon fill="none" stroke="#000000" points="240.5,-.5 240.5,-36.5 309.5,-36.5 309.5,-.5 240.5,-.5"/>
<text text-anchor="middle" x="250.25" y="-14.3" font-family="Times,serif" font-size="14.00" fill="#000000"> </text>
<polyline fill="none" stroke="#000000" points="260,-.5 260,-36.5 "/>
<text text-anchor="middle" x="275" y="-14.3" font-family="Times,serif" font-size="14.00" fill="#000000">15</text>
<polyline fill="none" stroke="#000000" points="290,-.5 290,-36.5 "/>
<text text-anchor="middle" x="299.75" y="-14.3" font-family="Times,serif" font-size="14.00" fill="#000000"> </text>
</g>
<!-- 13&#45;&gt;15 -->
<g id="edge6" class="edge">
<title>13:c-&gt;15:data</title>
<path fill="none" stroke="#000000" d="M244.2624,-84.1666C245.8743,-80.716 247.9174,-76.5817 250,-73 257.7986,-59.5874 268.8555,-56.8583 273.1732,-46.6437"/>
<ellipse fill="#000000" stroke="#000000" cx="242.6259" cy="-87.8453" rx="4" ry="4"/>
<polygon fill="#000000" stroke="#000000" points="276.6721,-46.9621 275,-36.5 269.7829,-45.7213 276.6721,-46.9621"/>
</g>
</g>
</svg>